With: Brad Pitt, Ray Liotta and James Gandolfini

De film volgt de carrière van Jackie Cogan. Cogan is een handhaver, en als de regels van de maffia verbroken worden wordt hij ingehuurd. Wanneer er een roofoverval plaatsvindt tijdens een kaartspel met hoge inzet, onder de bescherming van de maffia, wordt Cogan ingevlogen. Vakkundig, met de efficiëntie van een meedogenloze zakenman, een scherpzinning gevoel voor mensenkennis, en een stijl zo koelbloedig als zijn blik, opereert hij met betrouwbare precisie.

Jackie Cogan is an enforcer hired to restore order after three dumb guys rob a Mob protected card game, causing the local criminal economy to collapse. 

www.imdb.com/title/tt1764234	

------------------------ Dutch Friends ------------------------
---------------------------------------------------------------
- Bezoek ook eens mijn vrienden op:  http://www.Film-Test.nl --
----- voor mijn Nederlandse Sync. ondertitels ---- en meer ----
------- http://www.Film-Test.nl ---- Over Films en meer -------
---------------------------------------------------------------

General:

Complete name                    : Killing Them SoftlyKilling Them Softly.avi
Format                           : AVI
Format/Info                      : Audio Video Interleave
File size                        : 1.03 GiB
Duration                         : 1h 33mn
Overall bit rate                 : 1 587 Kbps

Video:

Format                           : MPEG-4 Visual
Format profile                   : Simple@L3
Format settings, BVOP            : No
Format settings, QPel            : No
Format settings, GMC             : No warppoints
Format settings, Matrix          : Default (H.263)
Codec ID                         : XVID
Codec ID/Hint                    : XviD
Duration                         : 1h 33mn
Bit rate                         : 1 128 Kbps
Width                            : 720 pixels
Height                           : 304 pixels
Display aspect ratio             : 2.35:1
Frame rate                       : 25.000 fps
Color space                      : YUV
Chroma subsampling               : 4:2:0
Bit depth                        : 8 bits
Scan type                        : Progressive
Compression mode                 : Lossy
Bits/(Pixel*Frame)               : 0.206
Stream size                      : 753 MiB (71%)
Writing library                  : XviD 1.1.2 (UTC 2006-11-01)

Audio:

Format                           : AC-3
Format/Info                      : Audio Coding 3
Mode extension                   : CM (complete main)
Codec ID                         : 2000
Duration                         : 1h 33mn
Bit rate mode                    : Constant
Bit rate                         : 448 Kbps
Channel(s)                       : 6 channels
Channel positions                : Front: L C R, Side: L R, LFE
Sampling rate                    : 48.0 KHz
Bit depth                        : 16 bits
Compression mode                 : Lossy
Stream size                      : 299 MiB (28%)
Alignment                        : Aligned on interleaves
Interleave, duration             : 32 ms (0.80 video frame)